<svg xmlns="http://www.w3.org/2000/svg" xmlns:xlink="http://www.w3.org/1999/xlink" x="0px" y="0px" width="48px" height="48px" viewBox="0 0 48 48"><g>
<path fill="#b2deb8" d="M47,11V6c0-1.105-0.895-2-2-2H3C1.895,4,1,4.895,1,6v5H47z" id="id_101"></path>
<path fill="#ebdab9" d="M45,43H15V11h32v30C47,42.105,46.105,43,45,43z" id="id_102"></path>
<circle fill="#E86C60" cx="4.5" cy="7.5" r="1.5" id="id_103"></circle>
<circle fill="#EFD358" cx="9.5" cy="7.5" r="1.5" id="id_104"></circle>
<circle fill="#72C472" cx="14.5" cy="7.5" r="1.5" id="id_105"></circle>
<path fill="#dbaf58" d="M16,43H3c-1.105,0-2-0.895-2-2V11h15V43z" id="id_106"></path>
<rect x="5" y="14" fill="#B3B3B3" width="7" height="2" id="id_107"></rect>
<rect x="5" y="20" fill="#198499" width="5" height="2" id="id_108"></rect>
<rect x="5" y="26" fill="#1b2085" width="7" height="2" id="id_109"></rect>
<rect x="5" y="32" fill="#B3B3B3" width="5" height="2" id="id_110"></rect>
<rect x="5" y="38" fill="#c7244d" width="7" height="2" id="id_111"></rect>
<rect x="20" y="14" fill="#851b71" width="5" height="2" id="id_112"></rect>
<rect x="24" y="20" fill="#EFD358" width="7" height="2" id="id_113"></rect>
<rect x="27" y="26" fill="#c24b4b" width="10" height="2" id="id_114"></rect>
<rect x="24" y="32" fill="#EFD358" width="7" height="2" id="id_115"></rect>
<rect x="20" y="38" fill="#E86C60" width="5" height="2" id="id_116"></rect>
</g></svg>